<svg width="79" height="15" viewBox="0 0 79 15" fill="none" xmlns="http://www.w3.org/2000/svg">
<path d="M7.5 3.90594L8.09879 5.34561L8.45064 6.19155L9.3639 6.26477L10.9182 6.38937L9.73398 7.40375L9.03817 7.99978L9.25075 8.89097L9.61254 10.4077L8.28188 9.5949L7.5 9.11733L6.71812 9.5949L5.38746 10.4077L5.74925 8.89097L5.96183 7.99978L5.26602 7.40375L4.08184 6.38937L5.63609 6.26477L6.54936 6.19155L6.90121 5.34561L7.5 3.90594Z" fill="#F1C644" stroke="#F1C644" stroke-width="3"/>
<path d="M23.5 3.90594L24.0988 5.34561L24.4506 6.19155L25.3639 6.26477L26.9182 6.38937L25.734 7.40375L25.0382 7.99978L25.2508 8.89097L25.6125 10.4077L24.2819 9.5949L23.5 9.11733L22.7181 9.5949L21.3875 10.4077L21.7492 8.89097L21.9618 7.99978L21.266 7.40375L20.0818 6.38937L21.6361 6.26477L22.5494 6.19155L22.9012 5.34561L23.5 3.90594Z" fill="#F1C644" stroke="#F1C644" stroke-width="3"/>
<path d="M39.5 3.90594L40.0988 5.34561L40.4506 6.19155L41.3639 6.26477L42.9182 6.38937L41.734 7.40375L41.0382 7.99978L41.2508 8.89097L41.6125 10.4077L40.2819 9.5949L39.5 9.11733L38.7181 9.5949L37.3875 10.4077L37.7492 8.89097L37.9618 7.99978L37.266 7.40375L36.0818 6.38937L37.6361 6.26477L38.5494 6.19155L38.9012 5.34561L39.5 3.90594Z" fill="#F1C644" stroke="#F1C644" stroke-width="3"/>
<path d="M55.5 3.90594L56.0988 5.34561L56.4506 6.19155L57.3639 6.26477L58.9182 6.38937L57.734 7.40375L57.0382 7.99978L57.2508 8.89097L57.6125 10.4077L56.2819 9.5949L55.5 9.11733L54.7181 9.5949L53.3875 10.4077L53.7492 8.89097L53.9618 7.99978L53.266 7.40375L52.0818 6.38937L53.6361 6.26477L54.5494 6.19155L54.9012 5.34561L55.5 3.90594Z" fill="#F1C644" stroke="#F1C644" stroke-width="3"/>
<path d="M71.5 3.90594L72.0988 5.34561L72.4506 6.19155L73.3639 6.26477L74.9182 6.38937L73.734 7.40375L73.0382 7.99978L73.2508 8.89097L73.6125 10.4077L72.2819 9.5949L71.5 9.11733L70.7181 9.5949L69.3875 10.4077L69.7492 8.89097L69.9618 7.99978L69.266 7.40375L68.0818 6.38937L69.6361 6.26477L70.5494 6.19155L70.9012 5.34561L71.5 3.90594Z" stroke="#F1C644" stroke-width="3"/>
</svg>
