<svg width="52" height="57" viewBox="0 0 52 57" fill="none" xmlns="http://www.w3.org/2000/svg">
<ellipse cx="26" cy="54" rx="19" ry="3" fill="#828282" fill-opacity="0.26"/>
<path d="M1 13.9032C1 30.0323 26 44.5484 26 44.5484C26 44.5484 51 30.0323 51 13.9032C51 7.22177 46.1613 1 38.9032 1C32.2218 1 26 5.60887 26 12.2903C26 5.60887 19.7782 1 13.0968 1C5.83871 1 1 7.22177 1 13.9032Z" stroke="#828282" stroke-width="2" stroke-miterlimit="10"/>
<path d="M31 26C31 26 29.125 24 26 24C22.875 24 21 26 21 26" stroke="#828282" stroke-width="1.5" stroke-linecap="round" stroke-linejoin="round"/>
<path d="M20 19H20.02" stroke="#828282" stroke-width="3" stroke-linecap="round" stroke-linejoin="round"/>
<path d="M32 19H32.02" stroke="#828282" stroke-width="3" stroke-linecap="round" stroke-linejoin="round"/>
</svg>
