<svg width="50" height="55" viewBox="0 0 50 55" fill="none" xmlns="http://www.w3.org/2000/svg">
<ellipse cx="31" cy="52" rx="19" ry="3" fill="#828282" fill-opacity="0.26"/>
<path d="M18.7501 40.8333C19.9007 40.8333 20.8334 39.9006 20.8334 38.75C20.8334 37.5994 19.9007 36.6667 18.7501 36.6667C17.5995 36.6667 16.6667 37.5994 16.6667 38.75C16.6667 39.9006 17.5995 40.8333 18.7501 40.8333Z" stroke="#828282" stroke-width="2" stroke-linecap="round" stroke-linejoin="round"/>
<path d="M41.6666 40.8333C42.8172 40.8333 43.7499 39.9006 43.7499 38.75C43.7499 37.5994 42.8172 36.6667 41.6666 36.6667C40.516 36.6667 39.5833 37.5994 39.5833 38.75C39.5833 39.9006 40.516 40.8333 41.6666 40.8333Z" stroke="#828282" stroke-width="2" stroke-linecap="round" stroke-linejoin="round"/>
<path d="M2.08325 2.08333H10.4166L15.9999 29.9792C16.1904 30.9383 16.7122 31.7999 17.474 32.4131C18.2357 33.0263 19.1889 33.3521 20.1666 33.3333H40.4166C41.3943 33.3521 42.3475 33.0263 43.1092 32.4131C43.8709 31.7999 44.3927 30.9383 44.5832 29.9792L47.9166 12.5H12.4999" stroke="#828282" stroke-width="2" stroke-linecap="round" stroke-linejoin="round"/>
<path d="M36 26C36 26 34.125 24 31 24C27.875 24 26 26 26 26" stroke="#828282" stroke-width="1.5" stroke-linecap="round" stroke-linejoin="round"/>
<path d="M25 19H25.02" stroke="#828282" stroke-width="3" stroke-linecap="round" stroke-linejoin="round"/>
<path d="M37 19H37.02" stroke="#828282" stroke-width="3" stroke-linecap="round" stroke-linejoin="round"/>
</svg>
